# WaveFront *.obj file (generated by Autodesk ATF)

mtllib de185df3-61fc-4e67-934e-e63c25540909.mtl

g Body1

v 7790.000000 -1.414214 2130.000000
v 7790.000000 -1.000000 2129.585786
v 7790.000000 -1.000000 1.000000
v 7790.000000 -4129.000000 1.000000
v 7790.000000 -4129.000000 2129.585786
v 7790.000000 -4128.585786 2130.000000
v 7148.572485 -650.414214 2779.000000
v 7148.572485 -3479.585786 2779.000000
v 1.000000 -1.000000 2129.585786
v 1.000000 -650.414214 2779.000000
v 1.000000 -3479.585786 2779.000000
v 1.000000 -4129.000000 2129.585786
v 1.000000 -4129.000000 1.000000
v 1.000000 -1.000000 1.000000
v 0.000000 -3480.000000 2780.000000
v 0.000000 -650.000000 2780.000000
v 0.000000 0.000000 2130.000000
v 0.000000 0.000000 0.000000
v 0.000000 -4130.000000 0.000000
v 0.000000 -4130.000000 2130.000000
v 7791.000000 -4130.000000 2130.000000
v 7148.584153 -3480.000000 2780.000000
v 7791.000000 -4130.000000 0.000000
v 7791.000000 0.000000 0.000000
v 7148.584153 -650.000000 2780.000000
v 7791.000000 0.000000 2130.000000
vt 206.358579 106.500000 0.000000
vt -206.358579 106.500000 0.000000
vt 206.400000 106.458579 0.000000
vt -206.400000 106.458579 0.000000
vt 206.400000 -106.400000 0.000000
vt -206.400000 -106.400000 0.000000
vt -0.000000 412.858579 0.000000
vt -0.000000 0.141421 0.000000
vt 91.248576 347.958579 0.000000
vt 91.248576 65.041421 0.000000
vt -138.900000 141.458579 0.000000
vt -138.900000 -141.458579 0.000000
vt -73.958579 206.400000 0.000000
vt -73.958579 -206.400000 0.000000
vt 138.900000 -206.400000 0.000000
vt 138.900000 206.400000 0.000000
vt -212.900000 0.100000 0.000000
vt -0.041421 0.100000 0.000000
vt -212.900000 779.000000 0.000000
vt -0.041421 779.000000 0.000000
vt -0.041421 0.100000 0.000000
vt -0.041421 714.857248 0.000000
vt -91.882460 0.100000 0.000000
vt -91.823882 779.000000 0.000000
vt -91.882460 779.000000 0.000000
vt -282.958579 0.100000 0.000000
vt -0.041421 0.100000 0.000000
vt -282.958579 714.857248 0.000000
vt -0.041421 714.857248 0.000000
vt -91.882460 0.100000 0.000000
vt -0.041421 0.100000 0.000000
vt -91.882460 714.857248 0.000000
vt -0.100000 779.000000 0.000000
vt -0.041421 779.000000 0.000000
vt -212.958579 0.100000 0.000000
vt -0.100000 0.100000 0.000000
vt -212.958579 779.000000 0.000000
vt -0.100000 779.000000 0.000000
vt -412.900000 0.100000 0.000000
vt -0.100000 0.100000 0.000000
vt -412.900000 779.000000 0.000000
vt -0.100000 779.000000 0.000000
vt 148.446134 141.500000 0.000000
vt 83.446134 206.500000 0.000000
vt 148.446134 -141.500000 0.000000
vt 83.446134 -206.500000 0.000000
vt -129.553866 -206.500000 0.000000
vt -129.553866 206.500000 0.000000
vt 91.923882 779.100000 0.000000
vt -0.000000 714.858415 0.000000
vt 91.923882 0.000000 0.000000
vt -0.000000 0.000000 0.000000
vt 213.000000 779.100000 0.000000
vt 0.000000 779.100000 0.000000
vt 213.000000 0.000000 0.000000
vt -0.000000 0.000000 0.000000
vt 413.000000 779.100000 0.000000
vt 0.000000 779.100000 0.000000
vt 413.000000 0.000000 0.000000
vt 0.000000 0.000000 0.000000
vt 283.000000 714.858415 0.000000
vt 0.000000 714.858415 0.000000
vt 283.000000 0.000000 0.000000
vt 0.000000 0.000000 0.000000
vt 91.923882 0.000000 0.000000
vt 91.923882 714.858415 0.000000
vt 0.000000 0.000000 0.000000
vt -0.000000 779.100000 0.000000
vt 213.000000 779.100000 0.000000
vt 0.000000 779.100000 0.000000
vt 213.000000 0.000000 0.000000
vt 0.000000 0.000000 0.000000
vt -106.500000 -206.500000 0.000000
vt 106.500000 -206.500000 0.000000
vt -106.500000 206.500000 0.000000
vt 106.500000 206.500000 0.000000
vt -0.000000 0.000000 0.000000
vt -91.389174 -65.000000 0.000000
vt -0.000000 -413.000000 0.000000
vt -91.389174 -348.000000 0.000000
vn -0.100000 0.000000 0.000000
vn -0.100000 0.000000 0.000000
vn -0.100000 0.000000 0.000000
vn -0.100000 0.000000 0.000000
vn -0.100000 0.000000 0.000000
vn -0.100000 0.000000 0.000000
vn -0.071124 0.000000 -0.070295
vn -0.071124 0.000000 -0.070295
vn -0.071124 0.000000 -0.070295
vn -0.071124 0.000000 -0.070295
vn 0.100000 0.000000 0.000000
vn 0.100000 0.000000 0.000000
vn 0.100000 0.000000 0.000000
vn 0.100000 0.000000 0.000000
vn 0.100000 0.000000 0.000000
vn 0.100000 0.000000 0.000000
vn -0.000000 0.100000 -0.000000
vn -0.000000 0.100000 -0.000000
vn -0.000000 0.100000 -0.000000
vn -0.000000 0.100000 -0.000000
vn -0.000000 0.070711 -0.070711
vn -0.000000 0.070711 -0.070711
vn -0.000000 0.070711 -0.070711
vn -0.000000 0.070711 -0.070711
vn -0.000000 0.070711 -0.070711
vn 0.000000 0.000000 -0.100000
vn 0.000000 0.000000 -0.100000
vn 0.000000 0.000000 -0.100000
vn 0.000000 0.000000 -0.100000
vn 0.000000 -0.070711 -0.070711
vn 0.000000 -0.070711 -0.070711
vn 0.000000 -0.070711 -0.070711
vn 0.000000 -0.070711 -0.070711
vn 0.000000 -0.070711 -0.070711
vn 0.000000 -0.100000 0.000000
vn 0.000000 -0.100000 0.000000
vn 0.000000 -0.100000 0.000000
vn 0.000000 -0.100000 0.000000
vn 0.000000 0.000000 0.100000
vn 0.000000 0.000000 0.100000
vn 0.000000 0.000000 0.100000
vn 0.000000 0.000000 0.100000
vn -0.100000 0.000000 0.000000
vn -0.100000 0.000000 0.000000
vn -0.100000 0.000000 0.000000
vn -0.100000 0.000000 0.000000
vn -0.100000 0.000000 0.000000
vn -0.100000 0.000000 0.000000
vn 0.000000 -0.070711 0.070711
vn 0.000000 -0.070711 0.070711
vn 0.000000 -0.070711 0.070711
vn 0.000000 -0.070711 0.070711
vn 0.000000 -0.100000 0.000000
vn 0.000000 -0.100000 0.000000
vn 0.000000 -0.100000 0.000000
vn 0.000000 -0.100000 0.000000
vn 0.000000 0.000000 -0.100000
vn 0.000000 0.000000 -0.100000
vn 0.000000 0.000000 -0.100000
vn 0.000000 0.000000 -0.100000
vn 0.000000 0.000000 0.100000
vn 0.000000 0.000000 0.100000
vn 0.000000 0.000000 0.100000
vn 0.000000 0.000000 0.100000
vn 0.000000 0.070711 0.070711
vn 0.000000 0.070711 0.070711
vn 0.000000 0.070711 0.070711
vn 0.000000 0.070711 0.070711
vn 0.000000 0.100000 0.000000
vn 0.000000 0.100000 0.000000
vn 0.000000 0.100000 0.000000
vn 0.000000 0.100000 0.000000
vn 0.100000 0.000000 0.000000
vn 0.100000 0.000000 0.000000
vn 0.100000 0.000000 0.000000
vn 0.100000 0.000000 0.000000
vn 0.071124 0.000000 0.070295
vn 0.071124 0.000000 0.070295
vn 0.071124 0.000000 0.070295
vn 0.071124 0.000000 0.070295
usemtl Steel_-_Satin
f 6/1/1 1/2/2 5/3/3
f 5/3/3 1/2/2 2/4/4
f 5/3/3 2/4/4 4/5/5
f 4/5/5 2/4/4 3/6/6
f 1/7/7 6/8/8 7/9/9
f 7/9/9 6/8/8 8/10/10
f 10/11/11 11/12/12 9/13/13
f 9/13/13 11/12/12 12/14/14
f 9/13/13 12/14/14 13/15/15
f 13/15/15 14/16/16 9/13/13
f 13/17/17 12/18/18 4/19/19
f 4/19/19 12/18/18 5/20/20
f 11/21/21 8/22/22 12/23/23
f 12/23/23 8/22/22 6/24/24
f 12/23/23 6/24/24 5/25/25
f 11/26/26 10/27/27 8/28/28
f 8/28/28 10/27/27 7/29/29
f 10/30/30 9/31/31 7/32/32
f 7/32/32 9/31/31 1/33/33
f 1/33/33 9/31/31 2/34/34
f 9/35/35 14/36/36 2/37/37
f 2/37/37 14/36/36 3/38/38
f 14/39/39 13/40/40 3/41/41
f 3/41/41 13/40/40 4/42/42
usemtl Powder_Coat_-_Rough_(White)
f 16/43/43 17/44/44 15/45/45
f 15/45/45 17/44/44 20/46/46
f 20/46/46 17/44/44 19/47/47
f 19/47/47 17/44/44 18/48/48
f 21/49/49 22/50/50 20/51/51
f 20/51/51 22/50/50 15/52/52
f 23/53/53 21/54/54 19/55/55
f 19/55/55 21/54/54 20/56/56
usemtl Walnut
f 24/57/57 23/58/58 18/59/59
f 18/59/59 23/58/58 19/60/60
usemtl Powder_Coat_-_Rough_(White)
f 22/61/61 25/62/62 15/63/63
f 15/63/63 25/62/62 16/64/64
f 16/65/65 25/66/66 17/67/67
f 17/67/67 25/66/66 26/68/68
f 26/69/69 24/70/70 17/71/71
f 17/71/71 24/70/70 18/72/72
f 21/73/73 23/74/74 26/75/75
f 26/75/75 23/74/74 24/76/76
f 26/77/77 25/78/78 21/79/79
f 21/79/79 25/78/78 22/80/80
# 26 vertices
# 80 texture params
# 80 normals
# 44 facets

# 1 groups
