# WaveFront *.obj file (generated by Autodesk ATF)

mtllib 33f86c80-c1c8-483c-ae6c-f24032f5ffdc.mtl

g Body2

v 8250.000000 4590.000000 2130.000000
v 0.000000 4590.000000 2130.000000
v 0.000000 3710.000000 3010.000000
v 8250.000000 3710.000000 3010.000000
v 230.000000 4360.000000 2130.000000
v 880.000000 3710.000000 2780.000000
v 880.000000 880.000000 2780.000000
v 230.000000 230.000000 2130.000000
v 0.000000 0.000000 2130.000000
v 8250.000000 0.000000 2130.000000
v 8250.000000 880.000000 3010.000000
v 0.000000 880.000000 3010.000000
v 230.000000 230.000000 0.000000
v 230.000000 4360.000000 0.000000
v 8020.000000 880.000000 2780.000000
v 8020.000000 230.000000 2130.000000
v 8020.000000 4360.000000 2130.000000
v 8020.000000 3710.000000 2780.000000
v 8020.000000 230.000000 0.000000
v 8020.000000 4360.000000 0.000000
v 8250.000000 4590.000000 0.000000
v 0.000000 4590.000000 0.000000
v 8250.000000 0.000000 0.000000
v 0.000000 0.000000 0.000000
vt 0.000000 0.000000 0.000000
vt 124.450794 0.000000 0.000000
vt 0.000000 825.000000 0.000000
vt 124.450794 825.000000 0.000000
vt 91.923882 436.000000 0.000000
vt 0.000000 371.000000 0.000000
vt 91.923882 23.000000 0.000000
vt 0.000000 88.000000 0.000000
vt 124.450793 825.000000 0.000000
vt -0.000000 825.000000 0.000000
vt 124.450793 0.000000 0.000000
vt -0.000000 0.000000 0.000000
vt 413.000000 213.000000 0.000000
vt 0.000000 213.000000 0.000000
vt 413.000000 0.000000 0.000000
vt 0.000000 0.000000 0.000000
vt 0.000000 23.000000 0.000000
vt 91.923882 88.000000 0.000000
vt 0.000000 802.000000 0.000000
vt 91.923882 802.000000 0.000000
vt 91.923882 23.000000 0.000000
vt 91.923882 802.000000 0.000000
vt 0.000000 88.000000 0.000000
vt 0.000000 802.000000 0.000000
vt 0.000000 88.000000 0.000000
vt 283.000000 88.000000 0.000000
vt 0.000000 802.000000 0.000000
vt 283.000000 802.000000 0.000000
vt -0.000000 0.000000 0.000000
vt 283.000000 0.000000 0.000000
vt -0.000000 825.000000 0.000000
vt 283.000000 825.000000 0.000000
vt -0.000000 0.000000 0.000000
vt 779.000000 0.000000 0.000000
vt -0.000000 213.000000 0.000000
vt 779.000000 213.000000 0.000000
vt -0.000000 0.000000 0.000000
vt 413.000000 0.000000 0.000000
vt -0.000000 213.000000 0.000000
vt 413.000000 213.000000 0.000000
vt 65.000000 278.000000 0.000000
vt 348.000000 278.000000 0.000000
vt 0.000000 0.000000 0.000000
vt 779.000000 0.000000 0.000000
vt 0.000000 213.000000 0.000000
vt 779.000000 213.000000 0.000000
vt 0.000000 0.000000 0.000000
vt 825.000000 0.000000 0.000000
vt 0.000000 213.000000 0.000000
vt 825.000000 213.000000 0.000000
vt 0.000000 0.000000 0.000000
vt 459.000000 0.000000 0.000000
vt 0.000000 213.000000 0.000000
vt 459.000000 213.000000 0.000000
vt 88.000000 301.000000 0.000000
vt 371.000000 301.000000 0.000000
vt 0.000000 0.000000 0.000000
vt 825.000000 0.000000 0.000000
vt 0.000000 213.000000 0.000000
vt 825.000000 213.000000 0.000000
vt 371.000000 301.000000 0.000000
vt 88.000000 301.000000 0.000000
vt 459.000000 213.000000 0.000000
vt 0.000000 213.000000 0.000000
vt 459.000000 0.000000 0.000000
vt 0.000000 0.000000 0.000000
vt 389.500000 -206.500000 0.000000
vt 412.500000 -229.500000 0.000000
vt 389.500000 206.500000 0.000000
vt 412.500000 229.500000 0.000000
vt -412.500000 229.500000 0.000000
vt -389.500000 -206.500000 0.000000
vt -412.500000 -229.500000 0.000000
vt -389.500000 206.500000 0.000000
vn 0.000000 0.070711 0.070711
vn 0.000000 0.070711 0.070711
vn 0.000000 0.070711 0.070711
vn 0.000000 0.070711 0.070711
vn 0.070711 0.000000 -0.070711
vn 0.070711 0.000000 -0.070711
vn 0.070711 0.000000 -0.070711
vn 0.070711 0.000000 -0.070711
vn 0.000000 -0.070711 0.070711
vn 0.000000 -0.070711 0.070711
vn 0.000000 -0.070711 0.070711
vn 0.000000 -0.070711 0.070711
vn 0.100000 0.000000 0.000000
vn 0.100000 0.000000 0.000000
vn 0.100000 0.000000 0.000000
vn 0.100000 0.000000 0.000000
vn 0.000000 0.070711 -0.070711
vn 0.000000 0.070711 -0.070711
vn 0.000000 0.070711 -0.070711
vn 0.000000 0.070711 -0.070711
vn 0.000000 -0.070711 -0.070711
vn 0.000000 -0.070711 -0.070711
vn 0.000000 -0.070711 -0.070711
vn 0.000000 -0.070711 -0.070711
vn 0.000000 0.000000 -0.100000
vn 0.000000 0.000000 -0.100000
vn 0.000000 0.000000 -0.100000
vn 0.000000 0.000000 -0.100000
vn 0.000000 0.000000 0.100000
vn 0.000000 0.000000 0.100000
vn 0.000000 0.000000 0.100000
vn 0.000000 0.000000 0.100000
vn 0.000000 0.100000 0.000000
vn 0.000000 0.100000 0.000000
vn 0.000000 0.100000 0.000000
vn 0.000000 0.100000 0.000000
vn -0.100000 0.000000 0.000000
vn -0.100000 0.000000 0.000000
vn -0.100000 0.000000 0.000000
vn -0.100000 0.000000 0.000000
vn -0.100000 0.000000 0.000000
vn -0.100000 0.000000 0.000000
vn 0.000000 -0.100000 0.000000
vn 0.000000 -0.100000 0.000000
vn 0.000000 -0.100000 0.000000
vn 0.000000 -0.100000 0.000000
vn 0.000000 0.100000 0.000000
vn 0.000000 0.100000 0.000000
vn 0.000000 0.100000 0.000000
vn 0.000000 0.100000 0.000000
vn 0.100000 0.000000 0.000000
vn 0.100000 0.000000 0.000000
vn 0.100000 0.000000 0.000000
vn 0.100000 0.000000 0.000000
vn 0.100000 0.000000 0.000000
vn 0.100000 0.000000 0.000000
vn 0.000000 -0.100000 0.000000
vn 0.000000 -0.100000 0.000000
vn 0.000000 -0.100000 0.000000
vn 0.000000 -0.100000 0.000000
vn -0.100000 0.000000 0.000000
vn -0.100000 0.000000 0.000000
vn -0.100000 0.000000 0.000000
vn -0.100000 0.000000 0.000000
vn -0.100000 0.000000 0.000000
vn -0.100000 0.000000 0.000000
vn 0.000000 0.000000 -0.100000
vn 0.000000 0.000000 -0.100000
vn 0.000000 0.000000 -0.100000
vn 0.000000 0.000000 -0.100000
vn 0.000000 0.000000 -0.100000
vn 0.000000 0.000000 -0.100000
vn 0.000000 0.000000 -0.100000
vn 0.000000 0.000000 -0.100000
usemtl Steel_-_Satin
f 2/1/1 3/2/2 1/3/3
f 1/3/3 3/2/2 4/4/4
f 5/5/5 6/6/6 8/7/7
f 8/7/7 6/6/6 7/8/8
f 10/9/9 11/10/10 9/11/11
f 9/11/11 11/10/10 12/12/12
f 5/13/13 8/14/14 14/15/15
f 14/15/15 8/14/14 13/16/16
f 8/17/17 7/18/18 16/19/19
f 16/19/19 7/18/18 15/20/20
f 5/21/21 17/22/22 6/23/23
f 6/23/23 17/22/22 18/24/24
f 7/25/25 6/26/26 15/27/27
f 15/27/27 6/26/26 18/28/28
f 3/29/29 12/30/30 4/31/31
f 4/31/31 12/30/30 11/32/32
f 19/33/33 13/34/34 16/35/35
f 16/35/35 13/34/34 8/36/36
f 20/37/37 19/38/38 17/39/39
f 17/39/39 19/38/38 16/40/40
f 17/39/39 16/40/40 18/41/41
f 18/41/41 16/40/40 15/42/42
f 14/43/43 20/44/44 5/45/45
f 5/45/45 20/44/44 17/46/46
f 21/47/47 22/48/48 1/49/49
f 1/49/49 22/48/48 2/50/50
f 23/51/51 21/52/52 10/53/53
f 10/53/53 21/52/52 1/54/54
f 10/53/53 1/54/54 11/55/55
f 11/55/55 1/54/54 4/56/56
f 24/57/57 23/58/58 9/59/59
f 9/59/59 23/58/58 10/60/60
f 12/61/61 3/62/62 9/63/63
f 9/63/63 3/62/62 2/64/64
f 9/63/63 2/64/64 24/65/65
f 24/65/65 2/64/64 22/66/66
f 13/67/67 24/68/68 14/69/69
f 14/69/69 24/68/68 22/70/70
f 14/69/69 22/70/70 21/71/71
f 13/67/67 19/72/72 24/68/68
f 24/68/68 19/72/72 23/73/73
f 23/73/73 19/72/72 20/74/74
f 23/73/73 20/74/74 21/71/71
f 21/71/71 20/74/74 14/69/69
# 24 vertices
# 74 texture params
# 74 normals
# 44 facets

# 1 groups
